HIERARCHY
ROOT Hips
{
	OFFSET -211.153198 91.653587 -35.738949
	CHANNELS 6 Xposition Yposition Zposition Zrotation Yrotation Xrotation 
	JOINT RightUpLeg
	{
		OFFSET 0.103455 1.857827 10.548507
		CHANNELS 3 Xrotation Yrotation Zrotation
		JOINT RightLeg
		{
			OFFSET 43.500000 -0.000031 0.000008
			CHANNELS 3 Xrotation Yrotation Zrotation
			JOINT RightFoot
			{
				OFFSET 42.372192 0.000011 -0.000014
				CHANNELS 3 Xrotation Yrotation Zrotation
				JOINT RightToe
				{
					OFFSET 17.299997 -0.000002 0.000013
					CHANNELS 3 Xrotation Yrotation Zrotation
					End Site
					{
						OFFSET 0.000000 0.000000 0.000000
					}
				}
			}
		}
	}
	JOINT LeftUpLeg
	{
		OFFSET 0.103457 1.857826 -10.548499
		CHANNELS 3 Xrotation Yrotation Zrotation
		JOINT LeftLeg
		{
			OFFSET 43.500046 -0.000019 0.000015
			CHANNELS 3 Xrotation Yrotation Zrotation
			JOINT LeftFoot
			{
				OFFSET 42.372261 -0.000004 0.000013
				CHANNELS 3 Xrotation Yrotation Zrotation
				JOINT LeftToe
				{
					OFFSET 17.299992 -0.000006 0.000004
					CHANNELS 3 Xrotation Yrotation Zrotation
					End Site
					{
						OFFSET 0.000000 0.000000 0.000000
					}
				}
			}
		}
	}
	JOINT Spine
	{
		OFFSET 6.901968 -2.603730 -0.000002
		CHANNELS 3 Xrotation Yrotation Zrotation
		JOINT Spine1
		{
			OFFSET 12.588100 -0.000001 0.000009
			CHANNELS 3 Xrotation Yrotation Zrotation
			JOINT Spine2
			{
				OFFSET 12.343201 0.000005 -0.000005
				CHANNELS 3 Xrotation Yrotation Zrotation
				JOINT Neck
				{
					OFFSET 25.832893 -0.000008 -0.000006
					CHANNELS 3 Xrotation Yrotation Zrotation
					JOINT Head
					{
						OFFSET 11.766606 0.000005 0.000008
						CHANNELS 3 Xrotation Yrotation Zrotation
						End Site
						{
							OFFSET 0.000000 0.000000 0.000000
						}
					}
				}
				JOINT RightShoulder
				{
					OFFSET 19.745903 -1.480373 6.000100
					CHANNELS 3 Xrotation Yrotation Zrotation
					JOINT RightArm
					{
						OFFSET 11.284123 -0.000007 -0.000024
						CHANNELS 3 Xrotation Yrotation Zrotation
						JOINT RightForeArm
						{
							OFFSET 33.000053 0.000004 0.000036
							CHANNELS 3 Xrotation Yrotation Zrotation
							JOINT RightHand
							{
								OFFSET 25.200006 0.000021 -0.000003
								CHANNELS 3 Xrotation Yrotation Zrotation
								End Site
								{
									OFFSET 0.000000 0.000000 0.000000
								}
							}
						}
					}
				}
				JOINT LeftShoulder
				{
					OFFSET 19.746101 -1.480381 -6.000079
					CHANNELS 3 Xrotation Yrotation Zrotation
					JOINT LeftArm
					{
						OFFSET 11.284133 -0.000015 -0.000008
						CHANNELS 3 Xrotation Yrotation Zrotation
						JOINT LeftForeArm
						{
							OFFSET 33.000099 0.000016 0.000006
							CHANNELS 3 Xrotation Yrotation Zrotation
							JOINT LeftHand
							{
								OFFSET 25.199781 0.000142 0.000425
								CHANNELS 3 Xrotation Yrotation Zrotation
								End Site
								{
									OFFSET 0.000000 0.000000 0.000000
								}
							}
						}
					}
				}
			}
		}
	}
}
MOTION
Frames: 5
Frame Time: 0.033333
-59.962059 85.043137 86.350487 96.381674 -2.285733 -153.976110 155.971072 1.946701 155.738012 -32.571372 -0.711805 -14.688849 79.093085 12.778286 10.638400 21.454560 0.003096 0.000016 -167.576109 4.753798 -166.578806 -48.858618 0.417380 -2.158441 68.832358 4.533054 8.271492 21.454555 -0.003093 0.000000 8.551341 -1.736507 0.736150 7.072178 -3.514540 1.365658 6.753540 -3.506359 1.386866 12.636164 5.064985 12.662191 -7.641011 -17.807954 18.314515 -156.144900 -68.059625 -25.995741 4.610691 56.188558 26.404832 -24.647571 -14.478099 1.128932 10.243042 1.114052 13.289631 -178.550420 78.166372 3.006479 -30.186943 -47.525552 -4.183064 -43.925930 17.982869 -1.761566 4.269071 3.852693 -44.739781 
-57.161430 85.456757 84.909866 96.003445 -3.495389 -152.546606 158.093225 3.492906 156.632494 -33.061736 -0.977806 -14.486585 80.731846 12.223379 9.675895 21.454558 0.003101 0.000017 -172.542135 7.071704 -167.279106 -59.749716 -0.145100 -2.307953 63.964202 4.637727 7.117201 21.454551 -0.003090 -0.000001 8.480223 -2.078102 0.708053 6.928536 -4.194644 1.291541 6.609611 -4.186901 1.316883 13.108175 4.223454 12.704209 -6.818358 -17.675744 18.113785 -155.747424 -67.889410 -26.410521 4.321911 56.178453 26.032107 -25.007681 -14.588700 1.141603 10.449531 1.780015 14.212696 -179.461103 78.405224 2.082999 -28.042950 -49.702733 -7.029106 -41.575228 17.166579 -1.641556 4.817431 2.202753 -44.412800 
-54.421131 86.056862 83.552048 95.804953 -4.370137 -150.399099 160.814222 4.892196 158.260510 -32.378157 -1.384189 -14.099864 81.818385 11.696064 9.010938 21.454558 0.003109 0.000018 -177.548281 8.337994 -168.623546 -68.313421 -0.593838 -2.030210 63.421633 4.257379 6.518374 21.454551 -0.003093 0.000001 8.455831 -2.245849 0.599450 6.883087 -4.523178 1.065357 6.563977 -4.516792 1.092698 13.168204 3.745328 12.747839 -6.009104 -17.625411 17.970844 -155.661282 -67.813021 -26.501300 3.494217 56.377187 25.538818 -26.218586 -14.928237 1.182893 10.336564 2.682249 14.980169 179.219205 78.624398 0.743802 -26.283002 -51.665125 -9.022209 -38.327678 16.041912 -1.482681 6.256538 -0.020152 -44.022400 
-51.618301 86.778671 82.212769 95.771246 -4.929555 -147.037990 164.036350 5.954403 160.649683 -30.970181 -1.947826 -13.253695 82.540111 10.996121 8.744659 21.454557 0.003120 0.000019 177.959281 8.903903 -169.154525 -74.026287 -1.015472 -1.332521 66.800801 3.448354 6.309765 21.454545 -0.003090 0.000000 8.467913 -2.260472 0.383618 6.915851 -4.539656 0.632217 6.596692 -4.535889 0.659671 13.146159 3.769423 12.701164 -5.675981 -17.164737 17.746319 -155.981713 -68.174290 -26.162034 2.262996 56.871809 24.946527 -27.920662 -15.408562 1.243063 9.830021 2.456955 15.183739 -179.183319 78.307046 2.364196 -24.824258 -53.399290 -11.061725 -34.671420 15.076828 -1.332677 8.112424 -1.906262 -43.558063 
-48.850460 87.467087 80.953918 95.544812 -5.146641 -142.649307 167.078653 6.493100 163.100737 -29.375616 -2.513231 -11.743997 83.056794 9.947833 8.839286 21.454557 0.003106 0.000018 173.772389 9.335602 -168.948158 -77.040326 -1.275822 -0.284049 67.958613 2.284832 5.422709 21.454550 -0.003092 0.000001 8.406187 -2.168286 0.073417 6.804012 -4.337042 0.019520 6.484918 -4.336981 0.045760 13.121931 4.266565 12.421421 -5.060331 -16.677939 17.256729 -157.063820 -68.867220 -25.029452 1.276652 57.582846 24.387940 -30.243579 -16.031420 1.326731 9.209415 2.172553 14.771391 -176.926638 77.981117 4.657719 -22.680775 -55.522925 -13.775961 -31.418204 14.368283 -1.217160 9.956773 -2.684894 -44.273850 
